<svg width="20" height="20" viewBox="0 0 20 20" fill="none" xmlns="http://www.w3.org/2000/svg">
<path opacity="0.987" fill-rule="evenodd" clip-rule="evenodd" d="M9.00984 1.32594C9.91609 1.22469 10.4523 1.22469 11.4261 1.32594C13.1498 1.58106 14.7476 2.37779 15.9886 3.60094C15.15 4.39361 14.3224 5.19785 13.5061 6.01344C11.9428 4.68844 10.1978 4.3826 8.27109 5.09594C6.85776 5.74594 5.87359 6.79927 5.31859 8.25594C4.41164 7.58073 3.51651 6.88979 2.63359 6.18344C2.57223 6.15114 2.50215 6.13931 2.43359 6.14969C3.83609 3.44552 6.02776 1.83719 9.00859 1.32469" fill="#F44336"/>
<path opacity="0.997" fill-rule="evenodd" clip-rule="evenodd" d="M2.43282 6.14949C2.50365 6.13866 2.57073 6.14991 2.63407 6.18324C3.51698 6.88959 4.41212 7.58053 5.31907 8.25574C5.17635 8.82332 5.08638 9.40286 5.05031 9.98699C5.08115 10.552 5.17073 11.1066 5.31907 11.6507L2.50032 13.8945C1.27282 11.3295 1.25032 8.74783 2.43282 6.14949Z" fill="#FFC107"/>
<path opacity="0.999" fill-rule="evenodd" clip-rule="evenodd" d="M15.8561 16.6124C14.9784 15.8384 14.0596 15.1123 13.1036 14.4374C14.0619 13.7608 14.6436 12.8324 14.8486 11.6524H10.1523V8.39117C12.8607 8.36867 15.5678 8.39159 18.2736 8.45992C18.7869 11.2474 18.194 13.7608 16.4948 15.9999C16.2928 16.2147 16.0788 16.4191 15.8561 16.6124Z" fill="#448AFF"/>
<path opacity="0.993" fill-rule="evenodd" clip-rule="evenodd" d="M5.31875 11.6523C6.34375 14.1998 8.22292 15.389 10.9563 15.2198C11.7235 15.131 12.4592 14.863 13.1038 14.4373C14.0604 15.114 14.9779 15.839 15.8563 16.6123C14.4646 17.8629 12.6901 18.6049 10.8225 18.7173C10.3982 18.7513 9.97182 18.7513 9.5475 18.7173C6.36583 18.3423 4.01667 16.7348 2.5 13.8948L5.31875 11.6523Z" fill="#43A047"/>
</svg>
