<svg width="512" height="512" viewBox="0 0 512 512" fill="none" xmlns="http://www.w3.org/2000/svg">
<path d="M399.913 111.9C408.492 111.9 415.447 104.945 415.447 96.3661C415.447 87.7869 408.492 80.832 399.913 80.832C391.334 80.832 384.379 87.7869 384.379 96.3661C384.379 104.945 391.334 111.9 399.913 111.9Z" fill="#FF7069"/>
<path d="M304.364 59.7306C314.656 59.7306 323 51.3867 323 41.0938C323 30.801 314.656 22.457 304.364 22.457C294.071 22.457 285.727 30.801 285.727 41.0938C285.727 51.3867 294.071 59.7306 304.364 59.7306Z" fill="#FF7069"/>
<path d="M193.807 62.8369C205.817 62.8369 215.552 53.1015 215.552 41.0923C215.552 29.0831 205.817 19.3477 193.807 19.3477C181.798 19.3477 172.063 29.0831 172.063 41.0923C172.063 53.1015 181.798 62.8369 193.807 62.8369Z" fill="#FF7069"/>
<path d="M98.258 120.702C111.698 120.702 122.593 109.807 122.593 96.3666C122.593 82.9266 111.698 72.0312 98.258 72.0312C84.8179 72.0312 73.9226 82.9266 73.9226 96.3666C73.9226 109.807 84.8179 120.702 98.258 120.702Z" fill="#FF7069"/>
<path d="M42.9774 219.357C58.131 219.357 70.4155 207.072 70.4155 191.919C70.4155 176.765 58.131 164.48 42.9774 164.48C27.8238 164.48 15.5393 176.765 15.5393 191.919C15.5393 207.072 27.8238 219.357 42.9774 219.357Z" fill="#FF7069"/>
<path d="M43.346 332.654C60.216 332.654 73.8919 318.978 73.8919 302.108C73.8919 285.238 60.216 271.562 43.346 271.562C26.4759 271.562 12.8 285.238 12.8 302.108C12.8 318.978 26.4759 332.654 43.346 332.654Z" fill="#FF7069"/>
<path d="M98.258 431.683C116.844 431.683 131.912 416.615 131.912 398.029C131.912 379.442 116.844 364.375 98.258 364.375C79.6715 364.375 64.6042 379.442 64.6042 398.029C64.6042 416.615 79.6715 431.683 98.258 431.683Z" fill="#FF7069"/>
<path d="M194.176 489.178C214.191 489.178 230.415 472.953 230.415 452.939C230.415 432.924 214.191 416.699 194.176 416.699C174.162 416.699 157.937 432.924 157.937 452.939C157.937 472.953 174.162 489.178 194.176 489.178Z" fill="#FF7069"/>
<path d="M304.364 492.651C326.094 492.651 343.711 475.035 343.711 453.304C343.711 431.573 326.094 413.957 304.364 413.957C282.633 413.957 265.016 431.573 265.016 453.304C265.016 475.035 282.633 492.651 304.364 492.651Z" fill="#FF7069"/>
<path d="M399.913 438.926C422.501 438.926 440.812 420.615 440.812 398.027C440.812 375.44 422.501 357.129 399.913 357.129C377.325 357.129 359.014 375.44 359.014 398.027C359.014 420.615 377.325 438.926 399.913 438.926Z" fill="#FF7069"/>
<path d="M455.194 344.934C478.641 344.934 497.649 325.926 497.649 302.478C497.649 279.031 478.641 260.023 455.194 260.023C431.746 260.023 412.739 279.031 412.739 302.478C412.739 325.926 431.746 344.934 455.194 344.934Z" fill="#FF7069"/>
<path d="M455.194 235.923C479.498 235.923 499.2 216.221 499.2 191.917C499.2 167.612 479.498 147.91 455.194 147.91C430.89 147.91 411.187 167.612 411.187 191.917C411.187 216.221 430.89 235.923 455.194 235.923Z" fill="#FF7069"/>
</svg>
