<svg width="20" height="20" viewBox="0 0 20 20" fill="none" xmlns="http://www.w3.org/2000/svg">
<path d="M9.99998 3.1251C8.51662 3.1251 7.06657 3.56497 5.8332 4.38908C4.59984 5.21319 3.63854 6.38453 3.07088 7.75498C2.50323 9.12542 2.3547 10.6334 2.64409 12.0883C2.93348 13.5431 3.64779 14.8795 4.69668 15.9284C5.74557 16.9773 7.08195 17.6916 8.5368 17.981C9.99166 18.2704 11.4997 18.1219 12.8701 17.5542C14.2406 16.9865 15.4119 16.0252 16.236 14.7919C17.0601 13.5585 17.5 12.1085 17.5 10.6251C17.4977 8.63668 16.7068 6.73034 15.3008 5.32431C13.8947 3.91828 11.9884 3.12738 9.99998 3.1251ZM9.99998 16.8751C8.76385 16.8751 7.55547 16.5085 6.52767 15.8218C5.49986 15.135 4.69878 14.1589 4.22573 13.0169C3.75269 11.8748 3.62892 10.6182 3.87007 9.40579C4.11123 8.19341 4.70649 7.07976 5.58056 6.20569C6.45464 5.33161 7.56829 4.73635 8.78067 4.4952C9.99305 4.25404 11.2497 4.37781 12.3918 4.85086C13.5338 5.3239 14.5099 6.12498 15.1967 7.15279C15.8834 8.1806 16.25 9.38897 16.25 10.6251C16.2481 12.2821 15.589 13.8708 14.4173 15.0425C13.2456 16.2142 11.657 16.8732 9.99998 16.8751ZM4.81717 2.94229L2.31717 5.44229C2.19989 5.55957 2.04083 5.62545 1.87498 5.62545C1.70913 5.62545 1.55007 5.55957 1.43279 5.44229C1.31552 5.32502 1.24963 5.16596 1.24963 5.0001C1.24963 4.83425 1.31552 4.67519 1.43279 4.55792L3.93279 2.05792C4.05007 1.94064 4.20913 1.87476 4.37498 1.87476C4.54083 1.87476 4.69989 1.94064 4.81717 2.05792C4.93444 2.17519 5.00033 2.33425 5.00033 2.5001C5.00033 2.66596 4.93444 2.82502 4.81717 2.94229ZM18.5672 5.44229C18.5091 5.5004 18.4402 5.5465 18.3643 5.57795C18.2884 5.60941 18.2071 5.62559 18.125 5.62559C18.0428 5.62559 17.9615 5.60941 17.8856 5.57795C17.8098 5.5465 17.7408 5.5004 17.6828 5.44229L15.1828 2.94229C15.0655 2.82502 14.9996 2.66596 14.9996 2.5001C14.9996 2.33425 15.0655 2.17519 15.1828 2.05792C15.3001 1.94064 15.4591 1.87476 15.625 1.87476C15.7908 1.87476 15.9499 1.94064 16.0672 2.05792L18.5672 4.55792C18.6253 4.61596 18.6714 4.68489 18.7028 4.76077C18.7343 4.83664 18.7505 4.91797 18.7505 5.0001C18.7505 5.08224 18.7343 5.16357 18.7028 5.23944C18.6714 5.31531 18.6253 5.38425 18.5672 5.44229ZM14.375 10.0001C14.5407 10.0001 14.6997 10.066 14.8169 10.1832C14.9341 10.3004 15 10.4593 15 10.6251C15 10.7909 14.9341 10.9498 14.8169 11.067C14.6997 11.1843 14.5407 11.2501 14.375 11.2501H9.99998C9.83422 11.2501 9.67525 11.1843 9.55804 11.067C9.44083 10.9498 9.37498 10.7909 9.37498 10.6251V6.2501C9.37498 6.08434 9.44083 5.92537 9.55804 5.80816C9.67525 5.69095 9.83422 5.6251 9.99998 5.6251C10.1657 5.6251 10.3247 5.69095 10.4419 5.80816C10.5591 5.92537 10.625 6.08434 10.625 6.2501V10.0001H14.375Z" fill="#888888"/>
</svg>
