<svg width="20" height="20" viewBox="0 0 20 20" fill="none" xmlns="http://www.w3.org/2000/svg">
<path d="M16.2497 6.72437C16.3514 6.72437 16.4525 6.745 16.5465 6.78394C16.6406 6.8229 16.7265 6.87991 16.7985 6.9519C16.8704 7.02387 16.9275 7.10985 16.9665 7.20386C17.0053 7.29769 17.025 7.39821 17.0251 7.49976C17.0251 7.6015 17.0054 7.70262 16.9665 7.79663C16.9275 7.8907 16.8705 7.97659 16.7985 8.04858L10.5485 14.2986C10.4765 14.3706 10.3906 14.4276 10.2965 14.4666C10.2025 14.5055 10.1014 14.5251 9.99966 14.5251C9.89794 14.5251 9.79677 14.5055 9.70279 14.4666C9.60894 14.4276 9.52365 14.3705 9.45181 14.2986L3.20181 8.04858C3.05641 7.90318 2.97427 7.70539 2.97427 7.49976C2.97437 7.29425 3.05649 7.09723 3.20181 6.9519C3.34714 6.80658 3.54415 6.72446 3.74966 6.72437C3.9553 6.72437 4.15309 6.8065 4.29849 6.9519L9.99966 12.6541L15.7018 6.9519C15.7738 6.87991 15.8597 6.8229 15.9538 6.78394C16.0476 6.74511 16.1481 6.72441 16.2497 6.72437Z" fill="black" stroke="black" stroke-width="0.3"/>
</svg>
