<svg width="12" height="7" viewBox="0 0 12 7" fill="none" xmlns="http://www.w3.org/2000/svg">
<path d="M10.7998 0.149414C10.8851 0.149447 10.97 0.166575 11.0488 0.199219C11.1276 0.231891 11.1995 0.279553 11.2598 0.339844C11.3201 0.400138 11.3677 0.472023 11.4004 0.550781C11.433 0.629603 11.4502 0.71449 11.4502 0.799805C11.4502 0.885173 11.4331 0.969955 11.4004 1.04883C11.3678 1.12762 11.32 1.19944 11.2598 1.25977L6.25977 6.25879C6.19942 6.3192 6.12771 6.36768 6.04883 6.40039C5.96992 6.4331 5.88522 6.4502 5.7998 6.4502C5.71439 6.4502 5.62969 6.4331 5.55078 6.40039C5.4719 6.36768 5.40019 6.3192 5.33984 6.25879L0.339844 1.25977C0.21804 1.13785 0.149414 0.972149 0.149414 0.799805C0.149473 0.627436 0.217954 0.46173 0.339844 0.339844C0.461731 0.217964 0.627441 0.149481 0.799805 0.149414C0.972144 0.149414 1.13784 0.218057 1.25977 0.339844L5.7998 4.87988L10.3398 0.339844C10.4002 0.279581 10.472 0.231851 10.5508 0.199219C10.6296 0.166566 10.7144 0.149414 10.7998 0.149414Z" fill="#171717" stroke="#171717" stroke-width="0.3"/>
</svg>
