<svg width="28" height="28" viewBox="0 0 28 28" fill="none" xmlns="http://www.w3.org/2000/svg">
<rect width="28" height="28" rx="14" fill="#A71E22"/>
<path d="M14 17.3611C14.75 17.3611 15.3876 17.0939 15.9128 16.5593C16.438 16.0248 16.7004 15.3754 16.7 14.6111C16.6996 13.8468 16.4372 13.1976 15.9128 12.6635C15.3884 12.1294 14.7508 11.8619 14 11.8611C13.2492 11.8603 12.6118 12.1278 12.0878 12.6635C11.5638 13.1992 11.3012 13.8484 11.3 14.6111C11.2988 15.3738 11.5614 16.0232 12.0878 16.5593C12.6142 17.0955 13.2516 17.3627 14 17.3611ZM14 16.1389C13.58 16.1389 13.225 15.9912 12.935 15.6958C12.645 15.4005 12.5 15.0389 12.5 14.6111C12.5 14.1833 12.645 13.8218 12.935 13.5264C13.225 13.231 13.58 13.0833 14 13.0833C14.42 13.0833 14.775 13.231 15.065 13.5264C15.355 13.8218 15.5 14.1833 15.5 14.6111C15.5 15.0389 15.355 15.4005 15.065 15.6958C14.775 15.9912 14.42 16.1389 14 16.1389ZM9.2 19.5C8.87 19.5 8.5876 19.3804 8.3528 19.1413C8.118 18.9021 8.0004 18.6143 8 18.2778V10.9444C8 10.6083 8.1176 10.3207 8.3528 10.0816C8.588 9.84241 8.8704 9.72263 9.2 9.72222H11.09L12.2 8.5H15.8L16.91 9.72222H18.8C19.13 9.72222 19.4126 9.842 19.6478 10.0816C19.883 10.3211 20.0004 10.6087 20 10.9444V18.2778C20 18.6139 19.8826 18.9017 19.6478 19.1413C19.413 19.3808 19.1304 19.5004 18.8 19.5H9.2Z" fill="white"/>
</svg>
