<svg width="48" height="48" viewBox="0 0 48 48" fill="none" xmlns="http://www.w3.org/2000/svg">
<rect width="48" height="48" rx="24" fill="#A71E22"/>
<path d="M24 30.1111C25.375 30.1111 26.5439 29.6252 27.5068 28.6533C28.4697 27.6815 28.9507 26.5007 28.95 25.1111C28.9493 23.7215 28.4682 22.5411 27.5068 21.57C26.5454 20.5989 25.3765 20.1126 24 20.1111C22.6235 20.1096 21.455 20.5959 20.4943 21.57C19.5336 22.5441 19.0522 23.7244 19.05 25.1111C19.0478 26.4978 19.5292 27.6785 20.4943 28.6533C21.4594 29.6281 22.6279 30.1141 24 30.1111ZM24 27.8889C23.23 27.8889 22.5792 27.6204 22.0475 27.0833C21.5158 26.5463 21.25 25.8889 21.25 25.1111C21.25 24.3333 21.5158 23.6759 22.0475 23.1389C22.5792 22.6019 23.23 22.3333 24 22.3333C24.77 22.3333 25.4208 22.6019 25.9525 23.1389C26.4842 23.6759 26.75 24.3333 26.75 25.1111C26.75 25.8889 26.4842 26.5463 25.9525 27.0833C25.4208 27.6204 24.77 27.8889 24 27.8889ZM15.2 34C14.595 34 14.0773 33.7826 13.6468 33.3478C13.2163 32.913 13.0007 32.3896 13 31.7778V18.4444C13 17.8333 13.2156 17.3104 13.6468 16.8756C14.078 16.4407 14.5957 16.223 15.2 16.2222H18.665L20.7 14H27.3L29.335 16.2222H32.8C33.405 16.2222 33.9231 16.44 34.3543 16.8756C34.7855 17.3111 35.0007 17.8341 35 18.4444V31.7778C35 32.3889 34.7848 32.9122 34.3543 33.3478C33.9238 33.7833 33.4057 34.0007 32.8 34H15.2Z" fill="white"/>
</svg>
