<svg width="20" height="20" viewBox="0 0 20 20" fill="none" xmlns="http://www.w3.org/2000/svg">
<path d="M10 18C14.4183 18 18 14.4183 18 10C18 5.58172 14.4183 2 10 2C5.58172 2 2 5.58172 2 10C2 14.4183 5.58172 18 10 18Z" stroke="#A71E22" stroke-linecap="round" stroke-linejoin="round"/>
<path d="M8.53614 6.49512C8.81206 6.49683 9.03465 6.72209 9.03321 6.99805L9.00001 13.0068C8.99851 13.283 8.77321 13.5064 8.49708 13.5049C8.22136 13.503 7.99864 13.2777 8.00001 13.002L8.03321 6.99317C8.0347 6.71703 8.26 6.49363 8.53614 6.49512Z" fill="#A71E22"/>
<path d="M11.5693 6.49512C11.8453 6.49682 12.0678 6.72209 12.0664 6.99805L12.0332 13.0068C12.0317 13.283 11.8064 13.5064 11.5303 13.5049C11.2546 13.503 11.0318 13.2777 11.0332 13.002L11.0664 6.99316C11.0679 6.71703 11.2932 6.49362 11.5693 6.49512Z" fill="#A71E22"/>
</svg>
