<svg width="56" height="56" viewBox="0 0 56 56" fill="none" xmlns="http://www.w3.org/2000/svg">
<circle cx="28" cy="28" r="28" fill="#A71E22"/>
<path d="M37.5838 29.3996C37.5844 29.6556 37.5188 29.9073 37.3933 30.1304C37.2678 30.3534 37.0868 30.5402 36.8677 30.6726L23.2916 38.9777C23.0627 39.1179 22.8005 39.1944 22.5322 39.1993C22.2638 39.2043 21.999 39.1376 21.7651 39.006C21.5334 38.8764 21.3404 38.6875 21.2059 38.4586C21.0715 38.2298 21.0004 37.9692 21 37.7038V21.0955C21.0004 20.83 21.0715 20.5694 21.2059 20.3406C21.3404 20.1117 21.5334 19.9228 21.7651 19.7932C21.999 19.6617 22.2638 19.5949 22.5322 19.5999C22.8005 19.6048 23.0627 19.6814 23.2916 19.8215L36.8677 28.1266C37.0868 28.259 37.2678 28.4458 37.3933 28.6688C37.5188 28.8919 37.5844 29.1437 37.5838 29.3996Z" fill="#FAA7A9"/>
</svg>
