<svg width="23" height="23" viewBox="0 0 23 23" fill="none" xmlns="http://www.w3.org/2000/svg">
<path d="M11.375 0C9.12524 0 6.926 0.667132 5.05539 1.91703C3.18478 3.16693 1.72682 4.94347 0.865875 7.02198C0.00492861 9.10048 -0.220334 11.3876 0.218573 13.5942C0.657479 15.8007 1.74084 17.8275 3.33167 19.4183C4.92249 21.0092 6.94932 22.0925 9.15585 22.5314C11.3624 22.9703 13.6495 22.7451 15.728 21.8841C17.8065 21.0232 19.5831 19.5652 20.833 17.6946C22.0829 15.824 22.75 13.6248 22.75 11.375C22.7468 8.35914 21.5474 5.46771 19.4148 3.33518C17.2823 1.20264 14.3909 0.0031848 11.375 0ZM11.375 21C9.47136 21 7.61046 20.4355 6.02764 19.3779C4.44482 18.3203 3.21116 16.8171 2.48266 15.0583C1.75417 13.2996 1.56356 11.3643 1.93495 9.49726C2.30633 7.63019 3.22302 5.91518 4.5691 4.5691C5.91518 3.22302 7.63019 2.30632 9.49726 1.93494C11.3643 1.56356 13.2996 1.75417 15.0583 2.48266C16.8171 3.21115 18.3203 4.44481 19.3779 6.02764C20.4355 7.61046 21 9.47135 21 11.375C20.9971 13.9268 19.9821 16.3733 18.1777 18.1777C16.3733 19.9821 13.9268 20.9971 11.375 21ZM16.6513 10.6334L9.65125 6.25844C9.51884 6.17567 9.36668 6.12986 9.21058 6.12574C9.05448 6.12162 8.90012 6.15935 8.76352 6.23502C8.62692 6.31068 8.51306 6.42152 8.43376 6.55604C8.35445 6.69056 8.31258 6.84384 8.3125 7V15.75C8.31258 15.9062 8.35445 16.0594 8.43376 16.194C8.51306 16.3285 8.62692 16.4393 8.76352 16.515C8.90012 16.5906 9.05448 16.6284 9.21058 16.6243C9.36668 16.6201 9.51884 16.5743 9.65125 16.4916L16.6513 12.1166C16.7769 12.0379 16.8805 11.9285 16.9523 11.7988C17.0241 11.6691 17.0618 11.5233 17.0618 11.375C17.0618 11.2267 17.0241 11.0809 16.9523 10.9512C16.8805 10.8215 16.7769 10.7121 16.6513 10.6334ZM10.0625 14.1717V8.57828L14.537 11.375L10.0625 14.1717Z" fill="#A71E22"/>
</svg>
