<svg width="40" height="40" viewBox="0 0 40 40" fill="none" xmlns="http://www.w3.org/2000/svg">
<rect width="40" height="40" rx="20" fill="#A71E22"/>
<path d="M24.9868 10H15.0129C13.1516 10 11.6279 11.5237 11.6279 13.3849V26.6151C11.6279 28.4763 13.1516 30 15.0129 30H24.9868C26.848 30 28.3717 28.4763 28.3717 26.6151V13.3849C28.3717 11.5237 26.848 10 24.9868 10ZM26.7734 26.6151C26.7734 27.5998 25.9715 28.4017 24.9868 28.4017H15.0129C14.0282 28.4017 13.2262 27.5998 13.2262 26.6151V13.3849C13.2262 12.4002 14.0282 11.5983 15.0129 11.5983H24.9868C25.9715 11.5983 26.7734 12.4002 26.7734 13.3849V26.6151Z" fill="#FAA7A9"/>
<path d="M23.3351 21.257L18.9095 24.1458C17.9173 24.7939 16.6025 24.0815 16.6025 22.8963V17.1074C16.6025 15.9213 17.9201 15.2098 18.9123 15.8597L23.3379 18.7607C24.2377 19.35 24.2359 20.6695 23.3351 21.257Z" fill="#FAA7A9"/>
</svg>
