<svg width="16" height="16" viewBox="0 0 16 16" fill="none" xmlns="http://www.w3.org/2000/svg">
<path d="M10.203 8.70297L5.75905 13.1469C5.71776 13.1882 5.66875 13.221 5.6148 13.2433C5.56085 13.2656 5.50303 13.2771 5.44464 13.2771C5.38625 13.2771 5.32843 13.2656 5.27448 13.2433C5.22054 13.221 5.17152 13.1882 5.13023 13.1469C5.08894 13.1056 5.05619 13.0566 5.03385 13.0027C5.0115 12.9487 5 12.8909 5 12.8325C5 12.7741 5.0115 12.7163 5.03385 12.6623C5.05619 12.6084 5.08894 12.5594 5.13023 12.5181L9.26033 8.38856L5.13023 4.25902C5.04685 4.17563 5 4.06254 5 3.94461C5 3.82668 5.04685 3.71359 5.13023 3.6302C5.21362 3.54682 5.32672 3.49997 5.44464 3.49997C5.56257 3.49997 5.67566 3.54682 5.75905 3.6302L10.203 8.07415C10.2443 8.11542 10.2771 8.16443 10.2995 8.21838C10.3218 8.27233 10.3333 8.33016 10.3333 8.38856C10.3333 8.44696 10.3218 8.50479 10.2995 8.55874C10.2771 8.61268 10.2443 8.6617 10.203 8.70297Z" fill="#A71E22"/>
</svg>
