<svg width="24" height="24" viewBox="0 0 24 24" fill="none" xmlns="http://www.w3.org/2000/svg">
<path d="M21.6503 19.8746C20.2225 17.4062 18.0222 15.6362 15.4544 14.7971C16.7246 14.041 17.7114 12.8888 18.2634 11.5176C18.8153 10.1463 18.9019 8.63175 18.5098 7.20652C18.1177 5.78129 17.2685 4.52418 16.0928 3.62824C14.9171 2.7323 13.4798 2.24707 12.0016 2.24707C10.5234 2.24707 9.08609 2.7323 7.91037 3.62824C6.73465 4.52418 5.88553 5.78129 5.49342 7.20652C5.1013 8.63175 5.18787 10.1463 5.73983 11.5176C6.2918 12.8888 7.27863 14.041 8.54878 14.7971C5.98097 15.6352 3.78066 17.4052 2.35285 19.8746C2.30049 19.96 2.26576 20.055 2.2507 20.154C2.23565 20.253 2.24059 20.3541 2.26521 20.4511C2.28984 20.5482 2.33366 20.6394 2.39409 20.7192C2.45452 20.7991 2.53033 20.8661 2.61706 20.9162C2.70378 20.9663 2.79966 20.9985 2.89904 21.0109C2.99842 21.0234 3.09928 21.0158 3.19568 20.9886C3.29208 20.9614 3.38205 20.9152 3.4603 20.8527C3.53855 20.7902 3.60349 20.7126 3.65128 20.6246C5.41753 17.5721 8.53941 15.7496 12.0016 15.7496C15.4638 15.7496 18.5857 17.5721 20.3519 20.6246C20.3997 20.7126 20.4646 20.7902 20.5429 20.8527C20.6211 20.9152 20.7111 20.9614 20.8075 20.9886C20.9039 21.0158 21.0048 21.0234 21.1042 21.0109C21.2035 20.9985 21.2994 20.9663 21.3861 20.9162C21.4729 20.8661 21.5487 20.7991 21.6091 20.7192C21.6695 20.6394 21.7134 20.5482 21.738 20.4511C21.7626 20.3541 21.7675 20.253 21.7525 20.154C21.7374 20.055 21.7027 19.96 21.6503 19.8746ZM6.7516 8.99962C6.7516 7.96127 7.0595 6.94624 7.63638 6.08288C8.21326 5.21952 9.0332 4.54661 9.99251 4.14925C10.9518 3.75189 12.0074 3.64793 13.0258 3.8505C14.0442 4.05307 14.9797 4.55308 15.7139 5.28731C16.4481 6.02154 16.9481 6.957 17.1507 7.9754C17.3533 8.9938 17.2493 10.0494 16.852 11.0087C16.4546 11.968 15.7817 12.788 14.9183 13.3648C14.055 13.9417 13.0399 14.2496 12.0016 14.2496C10.6097 14.2481 9.27517 13.6945 8.29093 12.7103C7.30669 11.726 6.75309 10.3916 6.7516 8.99962Z" fill="#171717"/>
</svg>
