<svg width="40" height="40" viewBox="0 0 40 40" fill="none" xmlns="http://www.w3.org/2000/svg">
<rect width="40" height="40" rx="20" fill="#A71E22"/>
<path d="M18.6914 24.1075C21.1212 24.1075 23.0909 22.1378 23.0909 19.708C23.0909 17.2783 21.1212 15.3086 18.6914 15.3086C16.2617 15.3086 14.292 17.2783 14.292 19.708C14.292 22.1378 16.2617 24.1075 18.6914 24.1075Z" fill="#FAA7A9"/>
<path d="M15.3116 25.7188H22.0724C25.0043 25.7188 27.3839 28.0984 27.3839 31.0303V32.0853H10V31.0303C10 28.0984 12.3796 25.7188 15.3116 25.7188Z" fill="#FAA7A9"/>
<path d="M28.1807 7.91508H23.4022C22.4019 7.91508 21.583 8.73396 21.583 9.73424V11.8747C21.583 12.8395 22.3441 13.632 23.2958 13.6878V14.7681C23.2958 15.2485 23.8765 15.4887 24.215 15.1492L25.6713 13.6928H28.1807C29.1809 13.6928 29.9998 12.874 29.9998 11.8737V9.73323C29.9998 8.73294 29.1809 7.91406 28.1807 7.91406V7.91508ZM24.0498 10.1974C24.3832 10.1974 24.6558 10.469 24.6558 10.8034C24.6558 11.1379 24.3832 11.4095 24.0498 11.4095C23.7163 11.4095 23.4437 11.1379 23.4437 10.8034C23.4437 10.469 23.7153 10.1974 24.0498 10.1974ZM25.7929 11.4105C25.4575 11.4105 25.1869 11.1389 25.1869 10.8045C25.1869 10.47 25.4585 10.1984 25.7929 10.1984C26.1274 10.1984 26.399 10.47 26.399 10.8045C26.399 11.1389 26.1274 11.4105 25.7929 11.4105ZM27.5351 11.4105C27.1996 11.4105 26.929 11.1389 26.929 10.8045C26.929 10.47 27.2006 10.1984 27.5351 10.1984C27.8695 10.1984 28.1411 10.47 28.1411 10.8045C28.1411 11.1389 27.8695 11.4105 27.5351 11.4105Z" fill="#FAA7A9"/>
</svg>
