<svg width="40" height="40" viewBox="0 0 40 40" fill="none" xmlns="http://www.w3.org/2000/svg">
<rect width="40" height="40" rx="20" fill="#A71E22"/>
<path d="M24.167 26.668V13.3346C24.6253 13.3346 25.0178 13.498 25.3445 13.8246C25.6712 14.1513 25.8342 14.5435 25.8337 15.0013V25.0013C25.8337 25.4596 25.6706 25.8521 25.3445 26.1788C25.0184 26.5055 24.6259 26.6685 24.167 26.668ZM13.3337 28.3346C12.8753 28.3346 12.4831 28.1716 12.157 27.8455C11.8309 27.5194 11.6675 27.1269 11.667 26.668V13.3346C11.667 12.8763 11.8303 12.4841 12.157 12.158C12.4837 11.8319 12.8759 11.6685 13.3337 11.668H20.8337C21.292 11.668 21.6845 11.8313 22.0112 12.158C22.3378 12.4846 22.5009 12.8769 22.5003 13.3346V26.668C22.5003 27.1263 22.3373 27.5188 22.0112 27.8455C21.6851 28.1721 21.2925 28.3352 20.8337 28.3346H13.3337ZM27.5003 25.0013V15.0013C27.8476 15.0013 28.1428 15.123 28.3862 15.3663C28.6295 15.6096 28.7509 15.9046 28.7503 16.2513V23.7513C28.7503 24.0985 28.6289 24.3938 28.3862 24.6371C28.1434 24.8805 27.8481 25.0019 27.5003 25.0013Z" fill="#FAA7A9"/>
</svg>
