<svg width="40" height="40" viewBox="0 0 40 40" fill="none" xmlns="http://www.w3.org/2000/svg">
<rect width="40" height="40" rx="20" fill="#5FD668"/>
<g clip-path="url(#clip0_1730_16682)">
<path d="M10.4262 19.8809C10.4257 21.5613 10.8682 23.2021 11.7096 24.6483L10.3457 29.5895L15.442 28.2636C16.8515 29.025 18.4308 29.424 20.0357 29.4241H20.0399C25.338 29.4241 29.6507 25.1463 29.653 19.8884C29.654 17.3406 28.6549 14.9448 26.8398 13.1423C25.0249 11.34 22.6113 10.3469 20.0395 10.3457C14.7409 10.3457 10.4284 14.6232 10.4263 19.8809" fill="url(#paint0_linear_1730_16682)"/>
<path d="M10.0836 19.8772C10.083 21.6181 10.5414 23.3175 11.4128 24.8155L10 29.9339L15.279 28.5605C16.7335 29.3474 18.3712 29.7622 20.0376 29.7629H20.0419C25.53 29.7629 29.9977 25.3312 30 19.8851C30.0009 17.2457 28.9659 14.7638 27.0859 12.8967C25.2057 11.0299 22.7057 10.0011 20.0419 10C14.5528 10 10.0858 14.431 10.0836 19.8772ZM13.2274 24.5575L13.0303 24.2471C12.2017 22.9398 11.7644 21.4291 11.765 19.8778C11.7667 15.3511 15.4795 11.6682 20.045 11.6682C22.2559 11.6691 24.3337 12.5243 25.8966 14.076C27.4593 15.6278 28.3192 17.6905 28.3187 19.8845C28.3166 24.4112 24.6037 28.0946 20.0419 28.0946H20.0386C18.5532 28.0938 17.0964 27.698 15.8259 26.95L15.5236 26.7721L12.3909 27.5871L13.2274 24.5575Z" fill="url(#paint1_linear_1730_16682)"/>
<path d="M17.5535 15.7487C17.3671 15.3377 17.1709 15.3294 16.9937 15.3222C16.8485 15.3159 16.6826 15.3164 16.5168 15.3164C16.3509 15.3164 16.0812 15.3784 15.8534 15.6253C15.6252 15.8724 14.9824 16.4696 14.9824 17.6842C14.9824 18.8989 15.8741 20.0728 15.9984 20.2377C16.1228 20.4023 17.7197 22.9747 20.2487 23.9643C22.3506 24.7867 22.7784 24.6232 23.2345 24.5819C23.6908 24.5408 24.7067 23.9849 24.914 23.4084C25.1214 22.8319 25.1214 22.3378 25.0592 22.2346C24.997 22.1317 24.8311 22.0699 24.5823 21.9465C24.3334 21.8231 23.1101 21.2257 22.882 21.1433C22.6539 21.061 22.488 21.0199 22.3221 21.2671C22.1562 21.5139 21.6797 22.0699 21.5345 22.2346C21.3894 22.3996 21.2441 22.4201 20.9954 22.2966C20.7464 22.1728 19.9451 21.9124 18.9944 21.0714C18.2547 20.417 17.7553 19.6088 17.6102 19.3616C17.465 19.1148 17.5946 18.981 17.7194 18.858C17.8312 18.7473 17.9683 18.5697 18.0928 18.4256C18.2169 18.2814 18.2583 18.1785 18.3412 18.0139C18.4243 17.849 18.3827 17.7049 18.3206 17.5814C18.2583 17.4579 17.7748 16.2369 17.5535 15.7487Z" fill="white"/>
</g>
<defs>
<linearGradient id="paint0_linear_1730_16682" x1="975.709" y1="1934.73" x2="975.709" y2="10.3457" gradientUnits="userSpaceOnUse">
<stop stop-color="#1FAF38"/>
<stop offset="1" stop-color="#60D669"/>
</linearGradient>
<linearGradient id="paint1_linear_1730_16682" x1="1010" y1="2003.39" x2="1010" y2="10" gradientUnits="userSpaceOnUse">
<stop stop-color="#F9F9F9"/>
<stop offset="1" stop-color="white"/>
</linearGradient>
<clipPath id="clip0_1730_16682">
<rect width="20" height="20" fill="white" transform="translate(10 10)"/>
</clipPath>
</defs>
</svg>
